<svg width="59" height="60" viewBox="0 0 59 60" fill="none" xmlns="http://www.w3.org/2000/svg">
<path fill-rule="evenodd" clip-rule="evenodd" d="M39.7403 10.7658C39.7403 14.5408 37.8277 17.862 34.9331 19.7839C42.345 22.2762 47.6883 29.4232 47.6883 37.8357C47.6883 40.3319 47.2175 42.719 46.3606 44.9064C46.0901 45.5969 45.3197 45.9339 44.64 45.6591C43.9602 45.3843 43.6285 44.6017 43.899 43.9111C44.6338 42.0355 45.039 39.9858 45.039 37.8357C45.039 28.8199 37.911 21.5315 29.1429 21.5315C20.3747 21.5315 13.2468 28.8199 13.2468 37.8357C13.2468 39.9189 13.627 41.9077 14.3189 43.7352C14.5816 44.4289 14.2409 45.2075 13.5581 45.4743C12.8752 45.7411 12.1088 45.3951 11.8462 44.7014C11.0393 42.5701 10.5974 40.2541 10.5974 37.8357C10.5974 29.4232 15.9407 22.2762 23.3526 19.7839C20.4581 17.862 18.5455 14.5408 18.5455 10.7658C18.5455 4.81999 23.2901 0 29.1429 0C34.9956 0 39.7403 4.81999 39.7403 10.7658ZM29.1429 2.69144C24.7533 2.69144 21.1948 6.30644 21.1948 10.7658C21.1948 15.2251 24.7533 18.8401 29.1429 18.8401C33.5324 18.8401 37.0909 15.2251 37.0909 10.7658C37.0909 6.30644 33.5324 2.69144 29.1429 2.69144Z" fill="#FF0009"/>
<path fill-rule="evenodd" clip-rule="evenodd" d="M3.97403 15.4758C3.97403 12.1313 6.64287 9.42004 9.93507 9.42004C13.2273 9.42004 15.8961 12.1313 15.8961 15.4758C15.8961 17.0386 15.3133 18.4632 14.3565 19.5374C14.8152 19.7143 15.2588 19.9225 15.6846 20.1596C16.3262 20.5168 16.5612 21.3348 16.2095 21.9865C15.8579 22.6383 15.0527 22.877 14.4112 22.5198C13.2804 21.8901 11.9821 21.5315 10.5974 21.5315C6.20782 21.5315 2.64935 25.1465 2.64935 29.6058C2.64935 30.8607 2.93023 32.0452 3.43036 33.1013C3.74754 33.771 3.47022 34.5752 2.81096 34.8974C2.15169 35.2196 1.36012 34.9379 1.04294 34.2681C0.374107 32.8559 0 31.2733 0 29.6058C0 25.3682 2.41004 21.7025 5.91363 19.946C4.72166 18.8387 3.97403 17.2459 3.97403 15.4758ZM9.93507 12.1115C8.10607 12.1115 6.62338 13.6177 6.62338 15.4758C6.62338 17.3338 8.10607 18.8401 9.93507 18.8401C11.7641 18.8401 13.2468 17.3338 13.2468 15.4758C13.2468 13.6177 11.7641 12.1115 9.93507 12.1115Z" fill="#FF0009"/>
<path fill-rule="evenodd" clip-rule="evenodd" d="M54.3117 15.4758C54.3117 12.1313 51.6428 9.42004 48.3507 9.42004C45.0585 9.42004 42.3896 12.1313 42.3896 15.4758C42.3896 17.0386 42.9724 18.4632 43.9292 19.5374C43.5059 19.7006 43.0955 19.8905 42.7 20.1052C42.0548 20.4555 41.8112 21.2708 42.156 21.9264C42.5008 22.5819 43.3034 22.8293 43.9487 22.479C45.0619 21.8747 46.3337 21.5315 47.6883 21.5315C52.0779 21.5315 55.6364 25.1465 55.6364 29.6058C55.6364 30.8607 55.3555 32.0452 54.8554 33.1013C54.5382 33.771 54.8155 34.5752 55.4748 34.8974C56.134 35.2196 56.9256 34.9379 57.2428 34.2681C57.9116 32.8559 58.2857 31.2733 58.2857 29.6058C58.2857 25.3682 55.8757 21.7025 52.3721 19.946C53.5641 18.8387 54.3117 17.2459 54.3117 15.4758ZM48.3507 12.1115C50.1796 12.1115 51.6623 13.6177 51.6623 15.4758C51.6623 17.3338 50.1796 18.8401 48.3507 18.8401C46.5217 18.8401 45.039 17.3338 45.039 15.4758C45.039 13.6177 46.5217 12.1115 48.3507 12.1115Z" fill="#FF0009"/>
<path fill-rule="evenodd" clip-rule="evenodd" d="M29.1429 29.6058C26.9481 29.6058 25.1688 31.4133 25.1688 33.643C25.1688 35.8727 26.9481 37.6802 29.1429 37.6802C31.3377 37.6802 33.1169 35.8727 33.1169 33.643C33.1169 31.4133 31.3377 29.6058 29.1429 29.6058ZM27.8182 33.643C27.8182 32.8998 28.4113 32.2973 29.1429 32.2973C29.8745 32.2973 30.4675 32.8998 30.4675 33.643C30.4675 34.3862 29.8745 34.9887 29.1429 34.9887C28.4113 34.9887 27.8182 34.3862 27.8182 33.643Z" fill="#FF0009"/>
<path fill-rule="evenodd" clip-rule="evenodd" d="M29.1429 25.5687C24.0217 25.5687 19.8701 29.7862 19.8701 34.9887C19.8701 38.1915 21.4441 41.0195 23.8442 42.7201V54.6171C23.8442 55.3309 24.1233 56.0155 24.6201 56.5203L27.2695 59.2117C28.3041 60.2628 29.9816 60.2628 31.0162 59.2117L32.3409 57.866C32.8378 57.3612 33.1169 56.6767 33.1169 55.9628V54.7759C33.1169 53.9998 32.7871 53.2614 32.2121 52.7504L31.1545 51.8102L31.5252 51.4807C32.7315 50.4084 32.7315 48.502 31.5252 47.4297L31.245 47.1807L32.0571 46.5619C32.7243 46.0536 33.1169 45.2559 33.1169 44.4088V43.5018C36.2483 41.9906 38.4156 38.7482 38.4156 34.9887C38.4156 29.7862 34.264 25.5687 29.1429 25.5687ZM22.5195 34.9887C22.5195 31.2726 25.4849 28.2601 29.1429 28.2601C32.8008 28.2601 35.7662 31.2726 35.7662 34.9887C35.7662 37.9163 33.9251 40.4105 31.3508 41.3348C30.8214 41.5249 30.4675 42.0333 30.4675 42.6036V44.4088L29.6554 45.0275C28.3083 46.0539 28.2332 48.0798 29.5004 49.2062L29.7806 49.4552L29.4099 49.7847C28.2036 50.857 28.2036 52.7635 29.4099 53.8358L30.4675 54.7759V55.9628L29.1429 57.3086L26.4935 54.6171V41.9828C26.4935 41.5025 26.2414 41.0585 25.8321 40.818C23.8489 39.6525 22.5195 37.4776 22.5195 34.9887Z" fill="#FF0009"/>
</svg>
