<svg width="54" height="56" viewBox="0 0 54 56" fill="none" xmlns="http://www.w3.org/2000/svg">
<path fill-rule="evenodd" clip-rule="evenodd" d="M40.751 53C41.4413 53 42.001 53.5596 42.001 54.25C42.001 54.891 41.5184 55.4194 40.8967 55.4916L40.751 55.5H13.251C12.5606 55.5 12.001 54.9403 12.001 54.25C12.001 53.6089 12.4835 53.0806 13.1052 53.0084L13.251 53H40.751ZM27.0059 0.500001C32.7647 0.515725 42.2755 14.2259 41.3467 18.8701L41.3139 19.0343L40.9089 19.8394C40.4438 20.756 39.9854 21.63 39.5338 22.4616L45.3643 26.2091L45.6827 26.4239C47.1439 27.4565 48.2562 28.9146 48.8647 30.6037C52.5669 40.8801 53.9404 46.5356 52.9287 48.559C51.898 50.6205 49.5163 52.0496 45.8639 52.9627C45.1941 53.1301 44.5155 52.7229 44.348 52.0532C44.1806 51.3834 44.5878 50.7047 45.2575 50.5373C48.2718 49.7837 50.0568 48.7128 50.6927 47.441C50.8753 47.0756 50.7802 45.7051 50.3002 43.5602L50.1446 42.8937C49.562 40.4948 48.5792 37.3199 47.1972 33.3765L46.5127 31.4511C46.047 30.1584 45.1682 29.0551 44.0124 28.3121L38.3065 24.6449C36.8706 27.1074 35.5051 29.1166 34.2062 30.6752C33.7643 31.2056 32.9761 31.2772 32.4457 30.8353C31.9154 30.3933 31.8437 29.6051 32.2857 29.0748L32.5494 28.7527C34.4046 26.4487 36.4537 23.0949 38.6832 18.7008L38.9175 18.2362L38.9286 18.0607C39.0162 14.454 30.9469 2.99999 26.996 2.99999L26.998 2.99875L26.7987 3.00809C22.5603 3.34137 14.7643 13.8697 15.087 17.6185L15.0897 17.6462L15.3048 18.1083C17.5504 22.9011 19.6119 26.4629 21.47 28.7796L21.7112 29.0748C22.1532 29.6051 22.0815 30.3933 21.5512 30.8353C21.0208 31.2772 20.2326 31.2056 19.7907 30.6752C18.5021 29.129 17.1515 27.0714 15.7336 24.4987L9.79926 28.3121C8.64342 29.0551 7.76466 30.1584 7.29893 31.4511L6.61445 33.3765C5.23246 37.3199 4.24968 40.4948 3.66707 42.8937L3.51143 43.5602C3.03148 45.7051 2.93633 47.0756 3.119 47.441C3.75489 48.7128 5.53985 49.7837 8.55413 50.5373C9.22388 50.7047 9.63108 51.3834 9.46364 52.0532C9.2962 52.7229 8.61754 53.1301 7.94779 52.9627C4.29541 52.0496 1.9137 50.6205 0.882927 48.559C-0.128771 46.5356 1.24473 40.8801 4.94691 30.6037C5.55547 28.9146 6.66773 27.4565 8.12896 26.4239L8.44736 26.2091L14.5588 22.2796C14.0623 21.3058 13.5578 20.2718 13.0451 19.1777L12.6706 18.3712L12.643 18.2055C11.795 13.1178 21.1081 0.514165 26.991 0.5L27.0059 0.500001ZM39.501 33C40.8817 33 42.001 34.1193 42.001 35.5V49.25C42.001 50.6307 40.8817 51.75 39.501 51.75H14.501C13.1202 51.75 12.001 50.6307 12.001 49.25V35.5C12.001 34.1193 13.1202 33 14.501 33H39.501ZM39.501 35.5H14.501V49.25H39.501V35.5ZM27.001 40.5C28.3817 40.5 29.501 41.6193 29.501 43C29.501 44.3807 28.3817 45.5 27.001 45.5C25.6203 45.5 24.501 44.3807 24.501 43C24.501 41.6193 25.6203 40.5 27.001 40.5ZM29.5 12.8615L29.796 13L36.31 16.257C36.9275 16.5657 37.1777 17.3165 36.869 17.934C36.5823 18.5074 35.9144 18.7641 35.3261 18.5507L35.1919 18.493L34.688 18.2413L34.5558 18.623C32.0575 25.7145 29.7254 29.25 27.001 29.25C24.2283 29.25 21.8619 25.5881 19.3132 18.2426L18.81 18.493C18.1925 18.8018 17.4417 18.5515 17.1329 17.934C16.8462 17.3606 17.0416 16.6723 17.5653 16.3297L17.6919 16.257L24.2059 13C25.8677 12.1691 27.8073 12.1229 29.5 12.8615ZM25.5707 15.1236L25.3239 15.2361L21.5693 17.1125L21.6252 17.2772C23.8103 23.5851 25.799 26.75 27.001 26.75C28.2132 26.75 30.2258 23.5306 32.4329 17.1144L28.678 15.2361C27.7035 14.7488 26.5697 14.7113 25.5707 15.1236Z" fill="#FF0009"/>
</svg>
