<svg width="60" height="60" viewBox="0 0 60 60" fill="none" xmlns="http://www.w3.org/2000/svg">
<path fill-rule="evenodd" clip-rule="evenodd" d="M58.75 22.5C58.75 11.4543 49.7957 2.5 38.75 2.5L38.3137 2.5047C30.1867 2.68006 23.0789 7.74258 20.1548 15.1246L20.0013 15.52L19.7966 15.4621C18.6502 15.1568 17.4605 15 16.25 15C8.65608 15 2.5 21.1561 2.5 28.75C2.5 34.2954 5.81353 39.232 10.8204 41.386C11.4545 41.6589 12.1898 41.366 12.4626 40.7318C12.7354 40.0976 12.4425 39.3624 11.8084 39.0896C7.71111 37.3269 5 33.2878 5 28.75C5 22.5368 10.0368 17.5 16.25 17.5C17.6671 17.5 19.0461 17.7615 20.3365 18.2648C21.0165 18.5301 21.7782 18.1587 21.988 17.4595C24.1894 10.1221 30.9703 5 38.75 5C48.415 5 56.25 12.835 56.25 22.5C56.25 28.8297 52.8623 34.5674 47.4774 37.6721C46.8794 38.0169 46.6741 38.7813 47.0189 39.3793C47.3637 39.9774 48.1281 40.1827 48.7262 39.8379C54.8776 36.2912 58.75 29.7325 58.75 22.5ZM36.8212 11.25C36.8212 10.5596 37.3808 10 38.0712 10C44.1217 10 49.408 13.9431 51.1923 19.628C51.399 20.2867 51.0327 20.9883 50.374 21.195C49.7153 21.4017 49.0138 21.0354 48.807 20.3767C47.3476 15.7267 43.0217 12.5 38.0712 12.5C37.3808 12.5 36.8212 11.9404 36.8212 11.25ZM51.875 23.75C51.875 24.4404 51.3154 25 50.625 25C49.9346 25 49.375 24.4404 49.375 23.75C49.375 23.0596 49.9346 22.5 50.625 22.5C51.3154 22.5 51.875 23.0596 51.875 23.75ZM37.5 20.9375L42.8101 21.6013C44.0612 21.7576 45 22.8211 45 24.082V42.4547C45 45.8712 43.2558 49.0513 40.3747 50.8875L31.3437 56.6436C30.5241 57.166 29.4759 57.166 28.6563 56.6436L19.6252 50.8875C16.7442 49.0513 15 45.8712 15 42.4547V24.082C15 22.8211 15.9388 21.7576 17.1899 21.6013L22.5 20.9375C27.4806 20.3149 32.5194 20.3149 37.5 20.9375ZM37.1899 23.4182C32.7335 22.8611 28.2286 22.824 23.7657 23.3068L22.8101 23.4182L17.5 24.082V42.4547C17.5 44.9103 18.7014 47.2031 20.7033 48.602L20.9689 48.7793L30 54.5354L39.0311 48.7793C41.1018 47.4595 42.3895 45.2141 42.4932 42.774L42.5 42.4547V24.082L37.1899 23.4182ZM32.2411 34.7411C32.7293 34.253 33.5207 34.253 34.0089 34.7411C34.4595 35.1917 34.4942 35.9008 34.1129 36.3911L34.0089 36.5089L29.6339 40.8839C29.1833 41.3345 28.4742 41.3691 27.9839 40.9879L27.8661 40.8839L25.3661 38.3839C24.878 37.8957 24.878 37.1043 25.3661 36.6161C25.8167 36.1655 26.5258 36.1308 27.0161 36.5121L27.1339 36.6161L28.75 38.2313L32.2411 34.7411ZM30 27.5C24.4772 27.5 20 31.9772 20 37.5C20 43.0228 24.4772 47.5 30 47.5C35.5229 47.5 40 43.0228 40 37.5C40 31.9772 35.5229 27.5 30 27.5ZM30 30C34.1421 30 37.5 33.3579 37.5 37.5C37.5 41.6421 34.1421 45 30 45C25.8579 45 22.5 41.6421 22.5 37.5C22.5 33.3579 25.8579 30 30 30Z" fill="#FF0009"/>
</svg>
