<svg width="56" height="56" viewBox="0 0 56 56" fill="none" xmlns="http://www.w3.org/2000/svg">
<path d="M41.7436 17.7797C41.6296 15.8112 39.9971 14.25 38 14.25H35.5L35.3542 14.2584C34.7326 14.3306 34.25 14.859 34.25 15.5C34.25 16.1904 34.8096 16.75 35.5 16.75H38L38.1458 16.7584C38.7675 16.8306 39.25 17.359 39.25 18V20.5L39.2584 20.6458C39.3306 21.2675 39.859 21.75 40.5 21.75C41.1904 21.75 41.75 21.1904 41.75 20.5V18L41.7436 17.7797Z" fill="#074086"/>
<path d="M40.5 34.25C41.141 34.25 41.6694 34.7326 41.7416 35.3542L41.75 35.5V38C41.75 39.9971 40.1889 41.6296 38.2203 41.7436L38 41.75H35.5C34.8096 41.75 34.25 41.1904 34.25 40.5C34.25 39.859 34.7326 39.3306 35.3542 39.2584L35.5 39.25H38C38.641 39.25 39.1694 38.7675 39.2416 38.1458L39.25 38V35.5C39.25 34.8096 39.8096 34.25 40.5 34.25Z" fill="#074086"/>
<path d="M16.7416 35.3542C16.6694 34.7326 16.141 34.25 15.5 34.25C14.8096 34.25 14.25 34.8096 14.25 35.5V38L14.2564 38.2203C14.3704 40.1889 16.0029 41.75 18 41.75H20.5L20.6458 41.7416C21.2675 41.6694 21.75 41.141 21.75 40.5C21.75 39.8096 21.1904 39.25 20.5 39.25H18L17.8542 39.2416C17.2326 39.1694 16.75 38.641 16.75 38V35.5L16.7416 35.3542Z" fill="#074086"/>
<path d="M20.5 14.25C21.1904 14.25 21.75 14.8096 21.75 15.5C21.75 16.141 21.2675 16.6694 20.6458 16.7416L20.5 16.75H18C17.359 16.75 16.8306 17.2326 16.7584 17.8542L16.75 18V20.5C16.75 21.1904 16.1904 21.75 15.5 21.75C14.859 21.75 14.3306 21.2675 14.2584 20.6458L14.25 20.5V18C14.25 16.0029 15.8112 14.3704 17.7797 14.2564L18 14.25H20.5Z" fill="#074086"/>
<path d="M28 19.25C29.3807 19.25 30.5 20.3693 30.5 21.75C30.5 23.1307 29.3807 24.25 28 24.25C26.6193 24.25 25.5 23.1307 25.5 21.75C25.5 20.3693 26.6193 19.25 28 19.25Z" fill="#074086"/>
<path fill-rule="evenodd" clip-rule="evenodd" d="M35.5 23C35.5 18.8579 32.1421 15.5 28 15.5C23.8579 15.5 20.5 18.8579 20.5 23L20.5064 23.3101L20.5263 23.6304C20.7309 26.074 22.1153 28.2376 24.1895 29.4614L24.25 29.495V37.9999L24.2586 38.1462C24.2983 38.4839 24.4746 38.7934 24.75 39L27.25 40.875L27.388 40.965C27.815 41.205 28.35 41.175 28.75 40.875L31.25 39L31.3619 38.9054C31.6082 38.671 31.75 38.3443 31.75 38V36.125L31.7392 35.9607L31.7072 35.8006C31.6508 35.5908 31.5402 35.3974 31.3839 35.2411L31.0188 34.875L31.3839 34.5089L31.4879 34.3911L31.5745 34.2643C31.8605 33.7844 31.7969 33.1542 31.3839 32.7411L31.0188 32.375L31.3839 32.0089L31.4924 31.8851L31.5829 31.7493C31.6914 31.5612 31.7499 31.3463 31.75 31.1254V29.495L31.8117 29.4607L32.0778 29.2961C34.1748 27.9372 35.5 25.5899 35.5 23ZM23 23C23 20.2386 25.2386 18 28 18C30.7614 18 33 20.2386 33 23C33 25.0067 31.8074 26.7944 30.0001 27.5843L29.8545 27.6596L29.722 27.7518C29.4288 27.9853 29.2508 28.343 29.2507 28.7293L29.25 30.605L28.3661 31.4911L28.2621 31.6089L28.1755 31.7358C27.8895 32.2156 27.9531 32.8458 28.3661 33.2589L28.7313 33.625L28.3661 33.9911L28.2621 34.1089L28.1755 34.2358C27.8895 34.7156 27.9531 35.3458 28.3661 35.7589L29.25 36.6438V37.375L28 38.3125L26.7488 37.3738L26.7506 28.7303L26.7399 28.5667C26.6832 28.1365 26.4057 27.7615 26.0009 27.5847C24.1931 26.795 23 25.0071 23 23Z" fill="#074086"/>
<path fill-rule="evenodd" clip-rule="evenodd" d="M15.5 4.25C15.5 2.17893 17.1789 0.5 19.25 0.5C21.3211 0.5 23 2.17893 23 4.25C23 5.88277 21.9565 7.27182 20.5 7.78662V10.5H26.75V7.78662C25.2935 7.27182 24.25 5.88277 24.25 4.25C24.25 2.17893 25.9289 0.5 28 0.5C30.0711 0.5 31.75 2.17893 31.75 4.25C31.75 5.88277 30.7065 7.27182 29.25 7.78662V10.5H35.5V7.78662C34.0435 7.27182 33 5.88277 33 4.25C33 2.17893 34.6789 0.5 36.75 0.5C38.8211 0.5 40.5 2.17893 40.5 4.25C40.5 5.88277 39.4565 7.27182 38 7.78662V10.5H39.25C42.7018 10.5 45.5 13.2982 45.5 16.75V18H48.0519C48.3494 16.2264 49.8919 14.875 51.75 14.875C53.8211 14.875 55.5 16.5539 55.5 18.625C55.5 20.6961 53.8211 22.375 51.75 22.375C50.362 22.375 49.1501 21.6209 48.5017 20.5H45.5V26.75H48.0519C48.3494 24.9764 49.8919 23.625 51.75 23.625C53.8211 23.625 55.5 25.3039 55.5 27.375C55.5 29.4461 53.8211 31.125 51.75 31.125C50.362 31.125 49.1501 30.3709 48.5017 29.25H45.5V35.5H48.0519C48.3494 33.7264 49.8919 32.375 51.75 32.375C53.8211 32.375 55.5 34.0539 55.5 36.125C55.5 38.1961 53.8211 39.875 51.75 39.875C50.362 39.875 49.1501 39.1209 48.5017 38H45.5V39.25C45.5 42.7018 42.7018 45.5 39.25 45.5H38V48.2134C39.4565 48.7282 40.5 50.1172 40.5 51.75C40.5 53.8211 38.8211 55.5 36.75 55.5C34.6789 55.5 33 53.8211 33 51.75C33 50.1172 34.0435 48.7282 35.5 48.2134V45.5H29.25V48.2134C30.7065 48.7282 31.75 50.1172 31.75 51.75C31.75 53.8211 30.0711 55.5 28 55.5C25.9289 55.5 24.25 53.8211 24.25 51.75C24.25 50.1172 25.2935 48.7282 26.75 48.2134V45.5H20.5V48.2134C21.9565 48.7282 23 50.1172 23 51.75C23 53.8211 21.3211 55.5 19.25 55.5C17.1789 55.5 15.5 53.8211 15.5 51.75C15.5 50.1172 16.5435 48.7282 18 48.2134V45.5H16.75C13.2982 45.5 10.5 42.7018 10.5 39.25V38H7.78662C7.27182 39.4565 5.88277 40.5 4.25 40.5C2.17893 40.5 0.5 38.8211 0.5 36.75C0.5 34.6789 2.17893 33 4.25 33C5.88277 33 7.27182 34.0435 7.78662 35.5H10.5V29.25H7.78662C7.27182 30.7065 5.88277 31.75 4.25 31.75C2.17893 31.75 0.5 30.0711 0.5 28C0.5 25.9289 2.17893 24.25 4.25 24.25C5.88277 24.25 7.27182 25.2935 7.78662 26.75H10.5V20.5H7.78662C7.27182 21.9565 5.88277 23 4.25 23C2.17893 23 0.5 21.3211 0.5 19.25C0.5 17.1789 2.17893 15.5 4.25 15.5C5.88277 15.5 7.27182 16.5435 7.78662 18H10.5V16.75C10.5 13.2982 13.2982 10.5 16.75 10.5H18V7.78662C16.5435 7.27182 15.5 5.88277 15.5 4.25ZM50.5 36.125C50.5 36.8154 51.0597 37.375 51.75 37.375C52.4404 37.375 53 36.8154 53 36.125C53 35.4346 52.4404 34.875 51.75 34.875C51.0597 34.875 50.5 35.4346 50.5 36.125ZM51.75 28.625C51.0597 28.625 50.5 28.0654 50.5 27.375C50.5 26.6846 51.0597 26.125 51.75 26.125C52.4404 26.125 53 26.6846 53 27.375C53 28.0654 52.4404 28.625 51.75 28.625ZM50.5 18.625C50.5 19.3154 51.0597 19.875 51.75 19.875C52.4404 19.875 53 19.3154 53 18.625C53 17.9346 52.4404 17.375 51.75 17.375C51.0597 17.375 50.5 17.9346 50.5 18.625ZM5.5 19.25C5.5 18.5596 4.94036 18 4.25 18C3.55964 18 3 18.5596 3 19.25C3 19.9404 3.55964 20.5 4.25 20.5C4.94036 20.5 5.5 19.9404 5.5 19.25ZM4.25 26.75C4.94036 26.75 5.5 27.3096 5.5 28C5.5 28.6904 4.94036 29.25 4.25 29.25C3.55964 29.25 3 28.6904 3 28C3 27.3096 3.55964 26.75 4.25 26.75ZM5.5 36.75C5.5 36.0596 4.94036 35.5 4.25 35.5C3.55964 35.5 3 36.0596 3 36.75C3 37.4404 3.55964 38 4.25 38C4.94036 38 5.5 37.4404 5.5 36.75ZM28 5.5C28.6904 5.5 29.25 4.94036 29.25 4.25C29.25 3.55964 28.6904 3 28 3C27.3096 3 26.75 3.55964 26.75 4.25C26.75 4.94036 27.3096 5.5 28 5.5ZM38 4.25C38 4.94036 37.4404 5.5 36.75 5.5C36.0596 5.5 35.5 4.94036 35.5 4.25C35.5 3.55964 36.0596 3 36.75 3C37.4404 3 38 3.55964 38 4.25ZM19.25 5.5C19.9404 5.5 20.5 4.94036 20.5 4.25C20.5 3.55964 19.9404 3 19.25 3C18.5596 3 18 3.55964 18 4.25C18 4.94036 18.5596 5.5 19.25 5.5ZM39.25 13C41.3211 13 43 14.6789 43 16.75V39.25C43 41.3211 41.3211 43 39.25 43H16.75C14.6789 43 13 41.3211 13 39.25V16.75C13 14.6789 14.6789 13 16.75 13H39.25ZM19.25 50.5C19.9404 50.5 20.5 51.0597 20.5 51.75C20.5 52.4404 19.9404 53 19.25 53C18.5596 53 18 52.4404 18 51.75C18 51.0597 18.5596 50.5 19.25 50.5ZM38 51.75C38 51.0597 37.4404 50.5 36.75 50.5C36.0596 50.5 35.5 51.0597 35.5 51.75C35.5 52.4404 36.0596 53 36.75 53C37.4404 53 38 52.4404 38 51.75ZM29.25 51.75C29.25 51.0597 28.6904 50.5 28 50.5C27.3096 50.5 26.75 51.0597 26.75 51.75C26.75 52.4404 27.3096 53 28 53C28.6904 53 29.25 52.4404 29.25 51.75Z" fill="#074086"/>
</svg>
