<svg width="60" height="60" viewBox="0 0 60 60" fill="none" xmlns="http://www.w3.org/2000/svg">
<path fill-rule="evenodd" clip-rule="evenodd" d="M3.75 3.75L3.60422 3.75841C2.98255 3.83062 2.5 4.35896 2.5 5C2.5 5.69036 3.05964 6.25 3.75 6.25H8.75V13.75H3.75L3.60422 13.7584C2.98255 13.8306 2.5 14.359 2.5 15C2.5 15.6904 3.05964 16.25 3.75 16.25H18.75V20.625L18.7584 20.7708C18.8306 21.3924 19.359 21.875 20 21.875C20.6904 21.875 21.25 21.3154 21.25 20.625V16.25H30C30.0493 16.25 30.098 16.2471 30.1458 16.2416C30.7675 16.1694 31.25 15.641 31.25 15V6.25H48.75V13.75H38.75L38.6042 13.7584C37.9826 13.8306 37.5 14.359 37.5 15C37.5 15.6904 38.0596 16.25 38.75 16.25H42.5V20.625L42.5084 20.7708C42.5806 21.3924 43.109 21.875 43.75 21.875C44.4404 21.875 45 21.3154 45 20.625V16.25H56.25L56.3958 16.2416C57.0175 16.1694 57.5 15.641 57.5 15C57.5 14.3096 56.9404 13.75 56.25 13.75H51.25V6.25H56.25L56.3958 6.24159C57.0175 6.16938 57.5 5.64104 57.5 5C57.5 4.30964 56.9404 3.75 56.25 3.75H3.75ZM28.75 13.75V6.25H11.25V13.75H28.75Z" fill="#074086"/>
<path d="M17.5 25C17.5 24.3096 16.9404 23.75 16.25 23.75H3.75L3.60422 23.7584C2.98255 23.8306 2.5 24.359 2.5 25C2.5 25.6904 3.05964 26.25 3.75 26.25H8.75V33.75H3.75L3.60422 33.7584C2.98255 33.8306 2.5 34.359 2.5 35C2.5 35.6904 3.05964 36.25 3.75 36.25H12.5L12.6458 36.2416C13.2675 36.1694 13.75 35.641 13.75 35C13.75 34.3096 13.1904 33.75 12.5 33.75H11.25V26.25H16.25L16.3958 26.2416C17.0175 26.1694 17.5 25.641 17.5 25Z" fill="#074086"/>
<path d="M57.5 25C57.5 24.3096 56.9404 23.75 56.25 23.75H46.875L46.7292 23.7584C46.1076 23.8306 45.625 24.359 45.625 25C45.625 25.6904 46.1847 26.25 46.875 26.25H51.25V33.75H49.375L49.2292 33.7584C48.6076 33.8306 48.125 34.359 48.125 35C48.125 35.6904 48.6847 36.25 49.375 36.25H56.25L56.3958 36.2416C57.0175 36.1694 57.5 35.641 57.5 35C57.5 34.3096 56.9404 33.75 56.25 33.75H53.75V26.25H56.25L56.3958 26.2416C57.0175 26.1694 57.5 25.641 57.5 25Z" fill="#074086"/>
<path d="M15 45C15 44.3096 14.4404 43.75 13.75 43.75H3.75L3.60422 43.7584C2.98255 43.8306 2.5 44.359 2.5 45C2.5 45.6904 3.05964 46.25 3.75 46.25H8.75V53.75H3.75L3.60422 53.7584C2.98255 53.8306 2.5 54.359 2.5 55C2.5 55.6904 3.05964 56.25 3.75 56.25H21.25L21.3958 56.2416C22.0175 56.1694 22.5 55.641 22.5 55C22.5 54.3096 21.9404 53.75 21.25 53.75H11.25V46.25H13.75L13.8958 46.2416C14.5175 46.1694 15 45.641 15 45Z" fill="#074086"/>
<path d="M57.5 45C57.5 44.3096 56.9404 43.75 56.25 43.75H48.125L47.9792 43.7584C47.3576 43.8306 46.875 44.359 46.875 45C46.875 45.6904 47.4347 46.25 48.125 46.25H51.25V53.75H41.875L41.7292 53.7584C41.1076 53.8306 40.625 54.359 40.625 55C40.625 55.6904 41.1846 56.25 41.875 56.25H56.25L56.3958 56.2416C57.0175 56.1694 57.5 55.641 57.5 55C57.5 54.3096 56.9404 53.75 56.25 53.75H53.75V46.25H56.25L56.3958 46.2416C57.0175 46.1694 57.5 45.641 57.5 45Z" fill="#074086"/>
<path fill-rule="evenodd" clip-rule="evenodd" d="M37.326 32.759C37.1969 32.8634 37.1012 32.9784 37.0321 33.1004L36.9788 33.2088L37.0849 33.0566C36.0645 34.5873 34.9228 35.5485 33.6002 36.1216C32.6291 36.5424 31.8503 36.7089 30.257 36.8723L28.9083 37.0024C27.6747 37.1324 27.0225 37.2787 26.316 37.632C23.2572 39.1614 22.6838 43.1617 24.625 45.75C27.3641 49.4021 34.267 50.0008 38.3839 45.8839C40.8934 43.3743 41.5796 40.241 40.9116 37.0124C40.6792 35.8892 40.2896 34.8247 39.8381 33.9616C39.6482 33.5987 39.4554 33.2891 39.281 33.0701C39.132 32.883 38.9947 32.7458 38.7832 32.6275C38.4091 32.4183 37.9526 32.3491 37.4665 32.6584L37.326 32.759ZM37.995 35.9475L38.0414 36.0628C38.2121 36.5167 38.3583 37.0108 38.4634 37.5189C38.9729 39.9811 38.4743 42.258 36.6161 44.1161C33.5882 47.144 28.4621 46.6995 26.625 44.25C25.5613 42.8317 25.8743 40.6479 27.434 39.868C27.8356 39.6672 28.3451 39.5674 29.4752 39.4581L30.5319 39.3573C32.3694 39.1688 33.3287 38.9638 34.5942 38.4155C35.7726 37.9048 36.8399 37.1668 37.8014 36.1601L37.995 35.9475Z" fill="#074086"/>
<path fill-rule="evenodd" clip-rule="evenodd" d="M25.9661 25.0071L26.0473 25.6362C26.1278 26.1893 26.2278 26.6971 26.3562 27.1767C27.0184 29.6499 28.2354 30.8371 30.5118 30.6301C33.8455 30.3271 34.5811 27.0906 32.2251 19.984L31.9452 19.1629C31.5743 18.1031 32.6802 17.1297 33.6843 17.6321C40.7056 21.1453 44.9124 26.9021 46.2329 34.7937C48.0505 45.657 40.7531 53.75 31.7173 53.75C23.2414 53.75 17.6344 47.9052 16.8808 40.1204C16.2618 33.7254 18.8148 27.0718 23.4769 22.2556C23.8814 21.8377 24.5394 21.655 25.1507 22.0704C25.4751 22.2909 25.6058 22.5351 25.6995 22.8435C25.7362 22.9643 25.7624 23.089 25.7852 23.2441L25.8284 23.6028L25.9661 25.0071ZM35.5011 21.6054L35.265 21.4438L35.314 21.6285C37.1128 28.607 35.709 32.668 30.7382 33.1199C27.0465 33.4555 24.8846 31.3465 23.9413 27.8233C23.825 27.3889 23.7295 26.944 23.6497 26.4789L23.57 25.9787L23.2999 26.3441C20.5043 30.1928 19.0214 34.8738 19.3293 39.3957L19.3692 39.8796C20.0053 46.4507 24.6093 51.25 31.7173 51.25C39.2437 51.25 45.3234 44.5074 43.7671 35.2063C42.776 29.2827 40.0345 24.77 35.5011 21.6054Z" fill="#074086"/>
</svg>
